<svg id="Capa_1" enable-background="new 0 0 512 512" height="512" viewBox="0 0 512 512" width="512" xmlns="http://www.w3.org/2000/svg"><g><g><circle cx="256" cy="256" fill="#dcf5ff" r="235.551"/></g><g><path d="m370.282 49.999c42.973 42.672 69.587 101.796 69.587 167.141 0 130.091-105.46 235.551-235.551 235.551-41.473 0-80.434-10.732-114.282-29.55 42.579 42.281 101.218 68.41 165.964 68.41 130.091 0 235.551-105.46 235.551-235.551 0-88.618-48.946-165.792-121.269-206.001z" fill="#97e4f9"/></g><g><g><path d="m256 512c-68.38 0-132.667-26.629-181.019-74.981s-74.981-112.639-74.981-181.019 26.629-132.667 74.981-181.019 112.639-74.981 181.019-74.981 132.667 26.629 181.019 74.981 74.981 112.639 74.981 181.019-26.629 132.667-74.981 181.019-112.639 74.981-181.019 74.981zm0-471.101c-118.607 0-215.101 96.493-215.101 215.101s96.494 215.101 215.101 215.101 215.101-96.493 215.101-215.101-96.494-215.101-215.101-215.101z" fill="#0acefa"/></g></g><g><path d="m276.685 246.035 22.38-45.153-27.483-13.622-22.38 45.153c-2.61 5.266-7.536 9.006-13.31 10.104l-75.463 14.357 5.733 30.133 66.744-12.698c8.259-1.571 16.556 2.541 20.307 10.065l30.313 60.804 27.451-13.686-34.273-68.747c-2.621-5.259-2.629-11.444-.019-16.71z" fill="#97e4f9"/></g><g><g><path d="m276.705 262.746c-2.622-5.26-2.63-11.445-.019-16.711l22.38-45.153-11.595-5.747-24.65 49.734c-2.61 5.266-2.603 11.451.019 16.711l34.273 68.747-16.812 8.382 3.226 6.47 27.451-13.686z" fill="#0acefa"/></g></g><g><g><circle cx="296.87" cy="170.774" fill="#0acefa" r="59.683"/></g></g><g><g><circle cx="160.221" cy="260.515" fill="#0acefa" r="59.683"/></g></g><g><g><circle cx="308.207" cy="333.863" fill="#0acefa" r="59.683"/></g></g><g><path d="m346.065 136.986c.488 9.845-1.447 19.947-6.135 29.407-14.638 29.534-50.446 41.609-79.98 26.971-9.46-4.689-17.117-11.556-22.69-19.686 1.037 20.892 13.032 40.623 33.106 50.573 29.534 14.638 65.342 2.563 79.98-26.971 9.949-20.075 7.546-43.041-4.281-60.294z" fill="#09a6ee"/></g><g><path d="m209.416 226.726c.488 9.845-1.447 19.947-6.135 29.407-14.638 29.534-50.446 41.609-79.98 26.971-9.46-4.689-17.117-11.556-22.69-19.687 1.037 20.892 13.032 40.623 33.106 50.573 29.534 14.638 65.342 2.563 79.98-26.971 9.949-20.073 7.546-43.039-4.281-60.293z" fill="#09a6ee"/></g><g><path d="m357.402 300.074c.488 9.845-1.447 19.947-6.135 29.407-14.638 29.534-50.446 41.609-79.98 26.971-9.46-4.689-17.117-11.556-22.69-19.687 1.037 20.892 13.032 40.623 33.106 50.573 29.534 14.638 65.342 2.563 79.98-26.971 9.948-20.073 7.546-43.039-4.281-60.293z" fill="#09a6ee"/></g><g><g><path d="m437.019 74.981c-3.936-3.936-7.989-7.713-12.13-11.358 41.138 46.727 63.623 106.077 63.623 168.891 0 68.38-26.629 132.667-74.981 181.019s-112.639 74.981-181.019 74.981c-62.814 0-122.163-22.485-168.89-63.622 3.645 4.141 7.421 8.192 11.357 12.128 48.354 48.351 112.641 74.98 181.021 74.98s132.667-26.629 181.019-74.981 74.981-112.639 74.981-181.019-26.629-132.667-74.981-181.019z" fill="#09a6ee"/></g></g></g></svg>